<?xml version="1.0" standalone="no"?>
<!DOCTYPE svg PUBLIC "-//W3C//DTD SVG 20010904//EN"
 "http://www.w3.org/TR/2001/REC-SVG-20010904/DTD/svg10.dtd">
<svg version="1.0" xmlns="http://www.w3.org/2000/svg"
 width="466.000000pt" height="487.000000pt" viewBox="0 0 466.000000 487.000000"
 preserveAspectRatio="xMidYMid meet">
<metadata>
Created by potrace 1.16, written by Peter Selinger 2001-2019
</metadata>
<g transform="translate(0.000000,487.000000) scale(0.100000,-0.100000)"
fill="#000000" stroke="none">
<path d="M2323 2441 c-75 -54 -73 -44 -73 -341 0 -244 2 -268 19 -297 37 -60
124 -49 142 18 10 36 10 186 0 170 -6 -9 -10 -2 -13 23 -2 20 0 36 4 36 5 0 7
93 6 208 -3 200 -4 207 -23 210 -12 2 -39 -11 -62 -27z m72 -58 c-2 -43 -3
-83 -4 -90 -1 -7 -8 -10 -16 -7 -11 5 -15 -2 -15 -27 0 -31 -1 -32 -14 -14
-14 19 -15 19 -33 2 -29 -25 -36 -21 -30 17 3 22 0 41 -9 55 -10 13 -13 30 -8
43 8 28 44 57 61 51 8 -3 13 2 13 13 0 9 3 15 6 11 4 -3 13 0 21 8 26 27 31
16 28 -62z"/>
<path d="M2110 2305 c-101 -61 -120 -83 -120 -145 0 -42 5 -54 33 -82 35 -35
107 -62 152 -56 31 3 59 37 38 45 -7 2 -9 11 -6 19 3 8 0 14 -6 14 -6 0 -11 5
-11 11 0 5 5 7 10 4 6 -3 10 5 10 19 0 14 -4 27 -9 30 -5 3 -7 16 -3 28 3 14
2 19 -6 14 -7 -4 -12 -3 -12 3 0 5 5 13 10 16 6 3 10 12 10 18 0 7 -7 4 -14
-5 -7 -10 -27 -21 -44 -24 -25 -5 -31 -2 -37 15 -5 17 -10 19 -20 11 -10 -8
-14 -7 -18 2 -4 12 75 72 96 73 4 0 12 6 16 14 5 8 16 11 25 8 15 -6 17 -24
15 -127 -1 -67 2 -124 5 -128 4 -3 5 55 4 129 -4 161 -5 162 -118 94z"/>
</g>
</svg>
